<mxfile host="app.diagrams.net" modified="2024-03-06T14:59:27.897Z" agent="Mozilla/5.0 (Windows NT 10.0; Win64; x64) AppleWebKit/537.36 (KHTML, like Gecko) Chrome/122.0.0.0 Safari/537.36" etag="PWI-NsfnXQMTynlNqYyO" version="24.0.2" type="github">
  <diagram name="第 1 页" id="1dXNIjqomakK2E_-Wu3f">
    <mxGraphModel dx="3531" dy="622" grid="0" gridSize="10" guides="1" tooltips="1" connect="1" arrows="1" fold="1" page="1" pageScale="1" pageWidth="2336" pageHeight="1654" math="0" shadow="0">
      <root>
        <mxCell id="0" />
        <mxCell id="1" parent="0" />
        <mxCell id="yzZIrOnsQKPowUjHJJeK-1" value="" style="whiteSpace=wrap;html=1;aspect=fixed;" vertex="1" parent="1">
          <mxGeometry x="308.5" y="479" width="263" height="263" as="geometry" />
        </mxCell>
        <mxCell id="yzZIrOnsQKPowUjHJJeK-2" value="E2000" style="rounded=0;whiteSpace=wrap;html=1;" vertex="1" parent="1">
          <mxGeometry x="308.5" y="684" width="263" height="60" as="geometry" />
        </mxCell>
        <mxCell id="yzZIrOnsQKPowUjHJJeK-3" value="SylixOS" style="rounded=0;whiteSpace=wrap;html=1;" vertex="1" parent="1">
          <mxGeometry x="308.5" y="624" width="265" height="60" as="geometry" />
        </mxCell>
        <mxCell id="yzZIrOnsQKPowUjHJJeK-4" value="" style="rounded=0;whiteSpace=wrap;html=1;" vertex="1" parent="1">
          <mxGeometry x="308.5" y="564" width="263" height="60" as="geometry" />
        </mxCell>
        <mxCell id="yzZIrOnsQKPowUjHJJeK-5" value="TPM" style="whiteSpace=wrap;html=1;aspect=fixed;" vertex="1" parent="1">
          <mxGeometry x="511.5" y="684" width="60" height="60" as="geometry" />
        </mxCell>
        <mxCell id="yzZIrOnsQKPowUjHJJeK-8" value="RTS" style="rounded=0;whiteSpace=wrap;html=1;" vertex="1" parent="1">
          <mxGeometry x="308.5" y="564" width="128" height="61" as="geometry" />
        </mxCell>
        <mxCell id="yzZIrOnsQKPowUjHJJeK-9" value="EtherCAT" style="rounded=0;whiteSpace=wrap;html=1;" vertex="1" parent="1">
          <mxGeometry x="426.5" y="564" width="78" height="61" as="geometry" />
        </mxCell>
        <mxCell id="yzZIrOnsQKPowUjHJJeK-10" value="可信" style="rounded=0;whiteSpace=wrap;html=1;" vertex="1" parent="1">
          <mxGeometry x="571.5" y="479" width="74" height="265" as="geometry" />
        </mxCell>
        <mxCell id="yzZIrOnsQKPowUjHJJeK-11" value="PLC" style="rounded=0;whiteSpace=wrap;html=1;" vertex="1" parent="1">
          <mxGeometry x="308.5" y="479" width="263" height="85" as="geometry" />
        </mxCell>
        <mxCell id="yzZIrOnsQKPowUjHJJeK-12" value="加密框架" style="rounded=0;whiteSpace=wrap;html=1;" vertex="1" parent="1">
          <mxGeometry x="500.5" y="564" width="71" height="61" as="geometry" />
        </mxCell>
        <mxCell id="yzZIrOnsQKPowUjHJJeK-13" value="目标机" style="text;html=1;align=center;verticalAlign=middle;resizable=0;points=[];autosize=1;strokeColor=none;fillColor=none;" vertex="1" parent="1">
          <mxGeometry x="438.5" y="447" width="54" height="26" as="geometry" />
        </mxCell>
        <mxCell id="yzZIrOnsQKPowUjHJJeK-16" value="ARM64/x64" style="rounded=0;whiteSpace=wrap;html=1;" vertex="1" parent="1">
          <mxGeometry x="-76.5" y="684" width="339" height="60" as="geometry" />
        </mxCell>
        <mxCell id="yzZIrOnsQKPowUjHJJeK-17" value="Linux/window" style="rounded=0;whiteSpace=wrap;html=1;" vertex="1" parent="1">
          <mxGeometry x="-76.5" y="624" width="339" height="60" as="geometry" />
        </mxCell>
        <mxCell id="yzZIrOnsQKPowUjHJJeK-18" value="" style="rounded=0;whiteSpace=wrap;html=1;" vertex="1" parent="1">
          <mxGeometry x="-77" y="478" width="339.5" height="146" as="geometry" />
        </mxCell>
        <mxCell id="yzZIrOnsQKPowUjHJJeK-19" value="寂山智工IDE" style="text;html=1;align=center;verticalAlign=middle;whiteSpace=wrap;rounded=0;" vertex="1" parent="1">
          <mxGeometry x="34.5" y="491" width="130" height="30" as="geometry" />
        </mxCell>
        <mxCell id="yzZIrOnsQKPowUjHJJeK-23" value="运动控制库" style="rounded=0;whiteSpace=wrap;html=1;" vertex="1" parent="1">
          <mxGeometry x="-65" y="537" width="102" height="48" as="geometry" />
        </mxCell>
        <mxCell id="yzZIrOnsQKPowUjHJJeK-24" value="翼辉编译器" style="rounded=0;whiteSpace=wrap;html=1;" vertex="1" parent="1">
          <mxGeometry x="43.5" y="537" width="112" height="48" as="geometry" />
        </mxCell>
        <mxCell id="yzZIrOnsQKPowUjHJJeK-25" value="调试" style="rounded=0;whiteSpace=wrap;html=1;" vertex="1" parent="1">
          <mxGeometry x="162" y="537" width="89" height="48" as="geometry" />
        </mxCell>
        <mxCell id="yzZIrOnsQKPowUjHJJeK-26" value="开发机" style="text;html=1;align=center;verticalAlign=middle;resizable=0;points=[];autosize=1;strokeColor=none;fillColor=none;" vertex="1" parent="1">
          <mxGeometry x="62.75" y="444" width="54" height="26" as="geometry" />
        </mxCell>
      </root>
    </mxGraphModel>
  </diagram>
</mxfile>
